Pacifico.ufo
<glyph name="A" format="1">
  <advance width="1632"/>
  <unicode hex="0041"/>
  <outline>
    <contour>
      <point x="1872" y="224" type="curve"/>
      <point x="1821" y="419" type="line"/>
      <point x="1740" y="377"/>
      <point x="1529" y="238"/>
      <point x="1447" y="238" type="curve" smooth="yes"/>
      <point x="1417" y="238"/>
      <point x="1411" y="260"/>
      <point x="1411" y="344" type="curve" smooth="yes"/>
      <point x="1411" y="398"/>
      <point x="1414" y="447"/>
      <point x="1418" y="505" type="curve"/>
      <point x="1479" y="714"/>
      <point x="1632" y="1156"/>
      <point x="1632" y="1397" type="curve" smooth="yes"/>
      <point x="1632" y="1707"/>
      <point x="1497" y="1593"/>
      <point x="1390" y="1655" type="curve"/>
      <point x="1390" y="1655"/>
      <point x="1391" y="1663"/>
      <point x="1391" y="1675" type="curve" smooth="yes"/>
      <point x="1391" y="1694"/>
      <point x="1380" y="1728"/>
      <point x="1289" y="1728" type="curve" smooth="yes"/>
      <point x="624" y="1728"/>
      <point x="128" y="966"/>
      <point x="128" y="450" type="curve" smooth="yes"/>
      <point x="128" y="109"/>
      <point x="344" y="-64"/>
      <point x="591" y="-64" type="curve" smooth="yes"/>
      <point x="817" y="-64"/>
      <point x="1053" y="98"/>
      <point x="1202" y="399" type="curve"/>
      <point x="1191" y="337"/>
      <point x="1184" y="283"/>
      <point x="1184" y="236" type="curve" smooth="yes"/>
      <point x="1184" y="15"/>
      <point x="1283" y="-32"/>
      <point x="1368" y="-32" type="curve" smooth="yes"/>
      <point x="1552" y="-32"/>
      <point x="1790" y="134"/>
    </contour>
    <contour>
      <point x="1399" y="1517" type="curve"/>
      <point x="1191" y="745" type="line"/>
      <point x="1153" y="569"/>
      <point x="945" y="160"/>
      <point x="648" y="160" type="curve" smooth="yes"/>
      <point x="489" y="160"/>
      <point x="416" y="268"/>
      <point x="416" y="456" type="curve" smooth="yes"/>
      <point x="416" y="837"/>
      <point x="821" y="1536"/>
      <point x="1254" y="1536" type="curve" smooth="yes"/>
      <point x="1300" y="1536"/>
      <point x="1352" y="1530"/>
    </contour>
  </outline>
</glyph>
<glyph name="B" format="1">
  <advance width="1292"/>
  <unicode hex="0042"/>
  <outline>
    <contour>
      <point x="60" y="1330" type="curve"/>
      <point x="146" y="1445"/>
      <point x="402" y="1502"/>
      <point x="654" y="1502" type="curve" smooth="yes"/>
      <point x="953" y="1502"/>
      <point x="1248" y="1422"/>
      <point x="1248" y="1262" type="curve" smooth="yes"/>
      <point x="1248" y="1100"/>
      <point x="1086" y="967"/>
      <point x="829" y="967" type="curve" smooth="yes"/>
      <point x="775" y="967"/>
      <point x="731" y="974"/>
      <point x="674" y="974" type="curve" smooth="yes"/>
      <point x="588" y="974"/>
      <point x="581" y="949"/>
      <point x="581" y="892" type="curve" smooth="yes"/>
      <point x="581" y="660"/>
      <point x="1088" y="799"/>
      <point x="1088" y="489" type="curve" smooth="yes"/>
      <point x="1088" y="226"/>
      <point x="871" y="121"/>
      <point x="644" y="121" type="curve" smooth="yes"/>
      <point x="551" y="121"/>
      <point x="454" y="142"/>
      <point x="373" y="169" type="curve"/>
      <point x="353" y="184"/>
      <point x="352" y="244"/>
      <point x="352" y="266" type="curve" smooth="yes"/>
      <point x="352" y="399"/>
      <point x="361" y="563"/>
      <point x="373" y="688" type="curve" smooth="yes"/>
      <point x="394" y="910"/>
      <point x="440" y="1162"/>
      <point x="563" y="1326" type="curve"/>
      <point x="531" y="1380"/>
      <point x="491" y="1408"/>
      <point x="441" y="1408" type="curve" smooth="yes"/>
      <point x="403" y="1408"/>
      <point x="360" y="1392"/>
      <point x="312" y="1359" type="curve"/>
      <point x="96" y="1042"/>
      <point x="64" y="536"/>
      <point x="64" y="93" type="curve" smooth="yes"/>
      <point x="64" y="45"/>
      <point x="98" y="31"/>
      <point x="135" y="22" type="curve"/>
      <point x="302" y="-40"/>
      <point x="524" y="-87"/>
      <point x="696" y="-87" type="curve" smooth="yes"/>
      <point x="1109" y="-87"/>
      <point x="1312" y="200"/>
      <point x="1312" y="454" type="curve" smooth="yes"/>
      <point x="1312" y="659"/>
      <point x="1178" y="841"/>
      <point x="915" y="841" type="curve"/>
      <point x="1331" y="850"/>
      <point x="1504" y="1066"/>
      <point x="1504" y="1270" type="curve" smooth="yes"/>
      <point x="1504" y="1530"/>
      <point x="1011" y="1736"/>
      <point x="559" y="1736" type="curve" smooth="yes"/>
      <point x="173" y="1736"/>
      <point x="-183" y="1587"/>
      <point x="-183" y="1195" type="curve" smooth="yes"/>
      <point x="-183" y="1128"/>
      <point x="-167" y="1094"/>
      <point x="-139" y="1094" type="curve" smooth="yes"/>
      <point x="-97" y="1094"/>
      <point x="-26" y="1174"/>
    </contour>
  </outline>
</glyph>
<glyph name="D" format="1">
  <advance width="1272"/>
  <unicode hex="0044"/>
  <outline>
    <contour>
      <point x="549" y="1736" type="curve" smooth="yes"/>
      <point x="198" y="1736"/>
      <point x="-123" y="1587"/>
      <point x="-123" y="1195" type="curve" smooth="yes"/>
      <point x="-123" y="1128"/>
      <point x="-107" y="1094"/>
      <point x="-79" y="1094" type="curve" smooth="yes"/>
      <point x="-37" y="1094"/>
      <point x="23" y="1180"/>
      <point x="120" y="1330" type="curve"/>
      <point x="191" y="1451"/>
      <point x="420" y="1502"/>
      <point x="644" y="1502" type="curve" smooth="yes"/>
      <point x="952" y="1502"/>
      <point x="1164" y="1318"/>
      <point x="1164" y="1009" type="curve" smooth="yes"/>
      <point x="1164" y="635"/>
      <point x="881" y="128"/>
      <point x="480" y="128" type="curve" smooth="yes"/>
      <point x="391" y="128"/>
      <point x="384" y="159"/>
      <point x="384" y="258" type="curve" smooth="yes"/>
      <point x="384" y="351"/>
      <point x="396" y="443"/>
      <point x="433" y="688" type="curve" smooth="yes"/>
      <point x="466" y="909"/>
      <point x="500" y="1162"/>
      <point x="623" y="1326" type="curve"/>
      <point x="591" y="1380"/>
      <point x="551" y="1408"/>
      <point x="501" y="1408" type="curve" smooth="yes"/>
      <point x="463" y="1408"/>
      <point x="420" y="1392"/>
      <point x="372" y="1359" type="curve"/>
      <point x="156" y="1042"/>
      <point x="124" y="536"/>
      <point x="124" y="93" type="curve" smooth="yes"/>
      <point x="124" y="48"/>
      <point x="128" y="36"/>
      <point x="162" y="24" type="curve"/>
      <point x="246" y="-18"/>
      <point x="386" y="-60"/>
      <point x="512" y="-60" type="curve" smooth="yes"/>
      <point x="1067" y="-60"/>
      <point x="1408" y="524"/>
      <point x="1408" y="1028" type="curve" smooth="yes"/>
      <point x="1408" y="1395"/>
      <point x="1202" y="1736"/>
    </contour>
  </outline>
</glyph>
<glyph name="F" format="1">
  <advance width="1376"/>
  <unicode hex="0046"/>
  <outline>
    <contour>
      <point x="654" y="1212" type="curve" smooth="yes"/>
      <point x="654" y="1322"/>
      <point x="760" y="1447"/>
      <point x="993" y="1514" type="curve"/>
      <point x="960" y="1344"/>
      <point x="954" y="1227"/>
      <point x="891" y="942" type="curve"/>
      <point x="835" y="933"/>
      <point x="764" y="918"/>
      <point x="615" y="886" type="curve"/>
      <point x="587" y="877"/>
      <point x="576" y="855"/>
      <point x="576" y="832" type="curve" smooth="yes"/>
      <point x="576" y="767"/>
      <point x="675" y="749"/>
      <point x="721" y="749" type="curve" smooth="yes"/>
      <point x="844" y="749" type="line"/>
      <point x="779" y="434"/>
      <point x="680" y="96"/>
      <point x="546" y="96" type="curve" smooth="yes"/>
      <point x="434" y="96"/>
      <point x="325" y="167"/>
      <point x="238" y="167" type="curve" smooth="yes"/>
      <point x="162" y="167"/>
      <point x="128" y="63"/>
      <point x="128" y="23" type="curve" smooth="yes"/>
      <point x="128" y="-94"/>
      <point x="351" y="-128"/>
      <point x="442" y="-128" type="curve" smooth="yes"/>
      <point x="882" y="-128"/>
      <point x="1009" y="264"/>
      <point x="1079" y="749" type="curve"/>
      <point x="1184" y="749"/>
      <point x="1635" y="768"/>
      <point x="1664" y="768" type="curve" smooth="yes"/>
      <point x="1693" y="768"/>
      <point x="1728" y="800"/>
      <point x="1728" y="864" type="curve" smooth="yes"/>
      <point x="1728" y="903"/>
      <point x="1728" y="960"/>
      <point x="1664" y="960" type="curve" smooth="yes"/>
      <point x="1109" y="960" type="line"/>
      <point x="1157" y="1441"/>
      <point x="1180" y="1500"/>
      <point x="1180" y="1544" type="curve" smooth="yes"/>
      <point x="1180" y="1544"/>
      <point x="1328" y="1564"/>
      <point x="1400" y="1564" type="curve" smooth="yes"/>
      <point x="1642" y="1564"/>
      <point x="1877" y="1550"/>
      <point x="2051" y="1520" type="curve" smooth="yes"/>
      <point x="2057" y="1519"/>
      <point x="2064" y="1518"/>
      <point x="2069" y="1518" type="curve" smooth="yes"/>
      <point x="2137" y="1518"/>
      <point x="2164" y="1588"/>
      <point x="2164" y="1638" type="curve" smooth="yes"/>
      <point x="2164" y="1677"/>
      <point x="2141" y="1715"/>
      <point x="2074" y="1733" type="curve"/>
      <point x="1840" y="1766"/>
      <point x="1613" y="1778"/>
      <point x="1412" y="1778" type="curve" smooth="yes"/>
      <point x="802" y="1778"/>
      <point x="383" y="1613"/>
      <point x="383" y="1216" type="curve" smooth="yes"/>
      <point x="383" y="1175"/>
      <point x="389" y="1136"/>
      <point x="544" y="1136" type="curve" smooth="yes"/>
      <point x="658" y="1136"/>
      <point x="654" y="1207"/>
    </contour>
  </outline>
</glyph>
<glyph name="H" format="1">
  <advance width="1981"/>
  <unicode hex="0048"/>
  <outline>
    <contour>
      <point x="1668" y="750" type="curve"/>
      <point x="1622" y="587"/>
      <point x="1591" y="439"/>
      <point x="1591" y="336" type="curve" smooth="yes"/>
      <point x="1591" y="246"/>
      <point x="1627" y="191"/>
      <point x="1714" y="191" type="curve" smooth="yes"/>
      <point x="1782" y="191"/>
      <point x="1898" y="266"/>
      <point x="2078" y="448" type="curve"/>
      <point x="2078" y="448"/>
      <point x="2085" y="436"/>
      <point x="2153" y="257" type="curve"/>
      <point x="1954" y="47"/>
      <point x="1744" y="-64"/>
      <point x="1598" y="-64" type="curve" smooth="yes"/>
      <point x="1431" y="-64"/>
      <point x="1302" y="63"/>
      <point x="1302" y="288" type="curve" smooth="yes"/>
      <point x="1302" y="365"/>
      <point x="1336" y="526"/>
      <point x="1390" y="724" type="curve"/>
      <point x="1212" y="706"/>
      <point x="1050" y="690"/>
      <point x="888" y="675" type="curve"/>
      <point x="814" y="450"/>
      <point x="737" y="240"/>
      <point x="696" y="131" type="curve"/>
      <point x="631" y="-10"/>
      <point x="566" y="-63"/>
      <point x="517" y="-63" type="curve" smooth="yes"/>
      <point x="452" y="-63"/>
      <point x="390" y="-18"/>
      <point x="390" y="51" type="curve" smooth="yes"/>
      <point x="390" y="61"/>
      <point x="391" y="71"/>
      <point x="394" y="82" type="curve" smooth="yes"/>
      <point x="449" y="285"/>
      <point x="518" y="476"/>
      <point x="586" y="655" type="curve"/>
      <point x="439" y="656"/>
      <point x="313" y="692"/>
      <point x="255" y="845" type="curve"/>
      <point x="250" y="869"/>
      <point x="246" y="887"/>
      <point x="246" y="905" type="curve" smooth="yes"/>
      <point x="246" y="933"/>
      <point x="255" y="949"/>
      <point x="277" y="949" type="curve" smooth="yes"/>
      <point x="302" y="949"/>
      <point x="330" y="922"/>
      <point x="378" y="863" type="curve"/>
      <point x="440" y="866"/>
      <point x="502" y="867"/>
      <point x="573" y="867" type="curve" smooth="yes"/>
      <point x="669" y="867" type="line"/>
      <point x="717" y="990"/>
      <point x="761" y="1106"/>
      <point x="798" y="1216" type="curve" smooth="yes"/>
      <point x="821" y="1286"/>
      <point x="835" y="1359"/>
      <point x="835" y="1423" type="curve" smooth="yes"/>
      <point x="835" y="1528"/>
      <point x="800" y="1600"/>
      <point x="702" y="1600" type="curve" smooth="yes"/>
      <point x="621" y="1600"/>
      <point x="493" y="1551"/>
      <point x="318" y="1408" type="curve" smooth="yes"/>
      <point x="287" y="1383"/>
      <point x="261" y="1373"/>
      <point x="240" y="1373" type="curve" smooth="yes"/>
      <point x="230" y="1373"/>
      <point x="224" y="1413"/>
      <point x="224" y="1465" type="curve" smooth="yes"/>
      <point x="224" y="1673"/>
      <point x="546" y="1824"/>
      <point x="734" y="1824" type="curve" smooth="yes"/>
      <point x="922" y="1824"/>
      <point x="1086" y="1728"/>
      <point x="1086" y="1472" type="curve" smooth="yes"/>
      <point x="1086" y="1351"/>
      <point x="1026" y="1118"/>
      <point x="952" y="876" type="curve"/>
      <point x="1088" y="885"/>
      <point x="1271" y="895"/>
      <point x="1443" y="904" type="curve"/>
      <point x="1510" y="1125"/>
      <point x="1595" y="1372"/>
      <point x="1686" y="1600" type="curve" smooth="yes"/>
      <point x="1716" y="1675"/>
      <point x="1767" y="1725"/>
      <point x="1835" y="1725" type="curve" smooth="yes"/>
      <point x="1892" y="1725"/>
      <point x="1942" y="1693"/>
      <point x="1942" y="1623" type="curve" smooth="yes"/>
      <point x="1942" y="1593"/>
      <point x="1940" y="1550"/>
      <point x="1923" y="1504" type="curve" smooth="yes"/>
      <point x="1861" y="1338"/>
      <point x="1783" y="1125"/>
      <point x="1718" y="919" type="curve"/>
      <point x="1802" y="924"/>
      <point x="1867" y="929"/>
      <point x="1899" y="932" type="curve" smooth="yes"/>
      <point x="1913" y="933"/>
      <point x="1926" y="934"/>
      <point x="1937" y="934" type="curve" smooth="yes"/>
      <point x="2016" y="934"/>
      <point x="2033" y="901"/>
      <point x="2033" y="851" type="curve" smooth="yes"/>
      <point x="2033" y="795"/>
      <point x="1979" y="779"/>
      <point x="1945" y="777" type="curve"/>
      <point x="1834" y="765"/>
      <point x="1932" y="774"/>
      <point x="1807" y="763" type="curve"/>
      <point x="1759" y="758"/>
      <point x="1713" y="754"/>
    </contour>
  </outline>
</glyph>
<glyph name="I" format="1">
  <advance width="863"/>
  <unicode hex="0049"/>
  <outline>
    <contour>
      <point x="309" y="1404" type="curve" smooth="yes"/>
      <point x="441" y="1452"/>
      <point x="459" y="1468"/>
      <point x="609" y="1484" type="curve"/>
      <point x="516" y="1230"/>
      <point x="389" y="686"/>
      <point x="264" y="163" type="curve"/>
      <point x="160" y="156"/>
      <point x="-27" y="117"/>
      <point x="-32" y="71" type="curve" smooth="yes"/>
      <point x="-39" y="5"/>
      <point x="-100" y="-18"/>
      <point x="-100" y="-27" type="curve" smooth="yes"/>
      <point x="-100" y="-37"/>
      <point x="626" y="-30"/>
      <point x="736" y="-32" type="curve"/>
      <point x="784" y="-5"/>
      <point x="808" y="23"/>
      <point x="808" y="50" type="curve" smooth="yes"/>
      <point x="808" y="134"/>
      <point x="579" y="158"/>
      <point x="554" y="157" type="curve"/>
      <point x="748" y="883"/>
      <point x="728" y="923"/>
      <point x="879" y="1504" type="curve"/>
      <point x="901" y="1502"/>
      <point x="924" y="1501"/>
      <point x="945" y="1501" type="curve" smooth="yes"/>
      <point x="1140" y="1501"/>
      <point x="1154" y="1560"/>
      <point x="1154" y="1618" type="curve" smooth="yes"/>
      <point x="1154" y="1675"/>
      <point x="1138" y="1730"/>
      <point x="875" y="1730" type="curve" smooth="yes"/>
      <point x="415" y="1730"/>
      <point x="297" y="1582"/>
      <point x="297" y="1533" type="curve" smooth="yes"/>
      <point x="297" y="1454"/>
      <point x="301" y="1402"/>
      <point x="305" y="1402" type="curve" smooth="yes"/>
      <point x="306" y="1402"/>
      <point x="307" y="1403"/>
    </contour>
  </outline>
</glyph>
<glyph name="J" format="1">
  <advance width="1562"/>
  <unicode hex="004A"/>
  <outline>
    <contour>
      <point x="56" y="-256" type="curve" smooth="yes"/>
      <point x="56" y="-588"/>
      <point x="217" y="-760"/>
      <point x="427" y="-760" type="curve" smooth="yes"/>
      <point x="730" y="-760"/>
      <point x="1135" y="-404"/>
      <point x="1311" y="337" type="curve"/>
      <point x="1429" y="287"/>
      <point x="1533" y="257"/>
      <point x="1607" y="256" type="curve" smooth="yes"/>
      <point x="1625" y="256"/>
      <point x="1640" y="259"/>
      <point x="1651" y="265" type="curve" smooth="yes"/>
      <point x="1667" y="273"/>
      <point x="1720" y="299"/>
      <point x="1720" y="326" type="curve" smooth="yes"/>
      <point x="1720" y="353"/>
      <point x="1640" y="396"/>
      <point x="1605" y="416" type="curve" smooth="yes"/>
      <point x="1520" y="464"/>
      <point x="1436" y="512"/>
      <point x="1355" y="562" type="curve"/>
      <point x="1384" y="740"/>
      <point x="1400" y="936"/>
      <point x="1400" y="1152" type="curve" smooth="yes"/>
      <point x="1400" y="1753"/>
      <point x="1174" y="1987"/>
      <point x="935" y="1987" type="curve" smooth="yes"/>
      <point x="664" y="1987"/>
      <point x="376" y="1687"/>
      <point x="376" y="1280" type="curve" smooth="yes"/>
      <point x="376" y="1068"/>
      <point x="555" y="844"/>
      <point x="782" y="659" type="curve"/>
      <point x="342" y="524"/>
      <point x="56" y="103"/>
    </contour>
    <contour>
      <point x="312" y="-320" type="curve" smooth="yes"/>
      <point x="312" y="-62"/>
      <point x="618" y="408"/>
      <point x="1026" y="487" type="curve"/>
      <point x="1063" y="464" type="line"/>
      <point x="923" y="-224"/>
      <point x="632" y="-527"/>
      <point x="456" y="-527" type="curve" smooth="yes"/>
      <point x="370" y="-527"/>
      <point x="312" y="-455"/>
    </contour>
    <contour>
      <point x="632" y="1344" type="curve" smooth="yes"/>
      <point x="632" y="1539"/>
      <point x="810" y="1772"/>
      <point x="956" y="1772" type="curve" smooth="yes"/>
      <point x="1058" y="1772"/>
      <point x="1144" y="1659"/>
      <point x="1144" y="1344" type="curve" smooth="yes"/>
      <point x="1144" y="1115"/>
      <point x="1130" y="909"/>
      <point x="1107" y="725" type="curve"/>
      <point x="828" y="923"/>
      <point x="632" y="1131"/>
    </contour>
  </outline>
</glyph>
<glyph name="K" format="1">
  <advance width="1920"/>
  <unicode hex="004B"/>
  <outline>
    <contour>
      <point x="1227" y="1497" type="curve" smooth="yes"/>
      <point x="1231" y="1535"/>
      <point x="1231" y="1578"/>
      <point x="1231" y="1632" type="curve" smooth="yes"/>
      <point x="1231" y="1674"/>
      <point x="1209" y="1728"/>
      <point x="1105" y="1728" type="curve" smooth="yes"/>
      <point x="836" y="1728"/>
      <point x="255" y="1663"/>
      <point x="193" y="1123" type="curve"/>
      <point x="193" y="1123"/>
      <point x="192" y="1119"/>
      <point x="192" y="1111" type="curve" smooth="yes"/>
      <point x="192" y="1084"/>
      <point x="208" y="1024"/>
      <point x="356" y="1024" type="curve" smooth="yes"/>
      <point x="470" y="1024"/>
      <point x="480" y="1083"/>
      <point x="480" y="1097" type="curve" smooth="yes"/>
      <point x="480" y="1295"/>
      <point x="630" y="1568"/>
      <point x="981" y="1568" type="curve"/>
      <point x="969" y="1485" type="line"/>
      <point x="905" y="862"/>
      <point x="760" y="160"/>
      <point x="399" y="160" type="curve" smooth="yes"/>
      <point x="355" y="160"/>
      <point x="307" y="174"/>
      <point x="260" y="195" type="curve" smooth="yes"/>
      <point x="257" y="196"/>
      <point x="254" y="196"/>
      <point x="251" y="196" type="curve" smooth="yes"/>
      <point x="214" y="196"/>
      <point x="173" y="149"/>
      <point x="163" y="131" type="curve" smooth="yes"/>
      <point x="146" y="101"/>
      <point x="124" y="72"/>
      <point x="124" y="36" type="curve" smooth="yes"/>
      <point x="124" y="-38"/>
      <point x="331" y="-64"/>
      <point x="434" y="-64" type="curve" smooth="yes"/>
      <point x="735" y="-64"/>
      <point x="980" y="159"/>
      <point x="1120" y="704" type="curve"/>
      <point x="1344" y="448"/>
      <point x="1350" y="-64"/>
      <point x="1734" y="-64" type="curve" smooth="yes"/>
      <point x="1995" y="-64"/>
      <point x="2235" y="114"/>
      <point x="2235" y="110" type="curve"/>
      <point x="2119" y="306" type="line"/>
      <point x="2012" y="220"/>
      <point x="1862" y="160"/>
      <point x="1760" y="160" type="curve" smooth="yes"/>
      <point x="1595" y="160"/>
      <point x="1504" y="384"/>
      <point x="1344" y="800" type="curve"/>
      <point x="1921" y="800"/>
      <point x="2080" y="1023"/>
      <point x="2080" y="1474" type="curve"/>
      <point x="2077" y="1516"/>
      <point x="2079" y="1574"/>
      <point x="2077" y="1604" type="curve" smooth="yes"/>
      <point x="2075" y="1631"/>
      <point x="2057" y="1696"/>
      <point x="1952" y="1696" type="curve"/>
      <point x="1812" y="1683"/>
      <point x="1824" y="1669"/>
      <point x="1824" y="1536" type="curve" smooth="yes"/>
      <point x="1824" y="1044"/>
      <point x="1599" y="992"/>
      <point x="1184" y="992" type="curve" smooth="yes"/>
      <point x="1184" y="992"/>
      <point x="1202" y="1267"/>
    </contour>
  </outline>
</glyph>
<glyph name="L" format="1">
  <advance width="992"/>
  <unicode hex="004C"/>
  <outline>
    <contour>
      <point x="-156" y="327" type="curve" smooth="yes"/>
      <point x="-177" y="313"/>
      <point x="-181" y="285"/>
      <point x="-181" y="260" type="curve" smooth="yes"/>
      <point x="-181" y="198"/>
      <point x="-136" y="129"/>
      <point x="-92" y="129" type="curve" smooth="yes"/>
      <point x="-70" y="129"/>
      <point x="17" y="182"/>
      <point x="131" y="266" type="curve"/>
      <point x="132" y="96"/>
      <point x="180" y="-50"/>
      <point x="377" y="-50" type="curve" smooth="yes"/>
      <point x="635" y="-50"/>
      <point x="970" y="89"/>
      <point x="970" y="89" type="curve"/>
      <point x="1033" y="101"/>
      <point x="1066" y="156"/>
      <point x="1066" y="208" type="curve" smooth="yes"/>
      <point x="1066" y="268"/>
      <point x="1035" y="323"/>
      <point x="969" y="323" type="curve" smooth="yes"/>
      <point x="960" y="323"/>
      <point x="949" y="321"/>
      <point x="938" y="319" type="curve"/>
      <point x="603" y="223" type="line" smooth="yes"/>
      <point x="551" y="208"/>
      <point x="512" y="201"/>
      <point x="482" y="201" type="curve" smooth="yes"/>
      <point x="403" y="201"/>
      <point x="388" y="214"/>
      <point x="388" y="239" type="curve" smooth="yes"/>
      <point x="388" y="250"/>
      <point x="388" y="263"/>
      <point x="394" y="426" type="curve"/>
      <point x="832" y="696"/>
      <point x="1184" y="1197"/>
      <point x="1184" y="1568" type="curve" smooth="yes"/>
      <point x="1184" y="1771"/>
      <point x="1089" y="1872"/>
      <point x="956" y="1872" type="curve" smooth="yes"/>
      <point x="681" y="1872"/>
      <point x="245" y="1442"/>
      <point x="155" y="602" type="curve"/>
      <point x="147" y="534" type="line"/>
      <point x="22" y="443"/>
      <point x="-122" y="350"/>
    </contour>
    <contour>
      <point x="412" y="678" type="curve"/>
      <point x="462" y="1236"/>
      <point x="749" y="1654"/>
      <point x="875" y="1654" type="curve" smooth="yes"/>
      <point x="911" y="1654"/>
      <point x="933" y="1620"/>
      <point x="933" y="1545" type="curve" smooth="yes"/>
      <point x="933" y="1524"/>
      <point x="932" y="1499"/>
      <point x="928" y="1472" type="curve" smooth="yes"/>
      <point x="895" y="1234"/>
      <point x="615" y="888"/>
    </contour>
  </outline>
</glyph>
<glyph name="M" format="1">
  <advance width="2175"/>
  <unicode hex="004D"/>
  <outline>
    <contour>
      <point x="440" y="98" type="curve" smooth="yes"/>
      <point x="512" y="608"/>
      <point x="864" y="1472"/>
      <point x="1012" y="1472" type="curve" smooth="yes"/>
      <point x="1104" y="1472"/>
      <point x="1115" y="1374"/>
      <point x="1115" y="1208" type="curve" smooth="yes"/>
      <point x="1115" y="847"/>
      <point x="950" y="247"/>
      <point x="950" y="144" type="curve" smooth="yes"/>
      <point x="950" y="41"/>
      <point x="1005" y="0"/>
      <point x="1062" y="0" type="curve" smooth="yes"/>
      <point x="1125" y="0"/>
      <point x="1196" y="28"/>
      <point x="1218" y="102" type="curve"/>
      <point x="1314" y="635"/>
      <point x="1469" y="1472"/>
      <point x="1751" y="1472" type="curve" smooth="yes"/>
      <point x="1826" y="1472"/>
      <point x="1837" y="1395"/>
      <point x="1837" y="1275" type="curve" smooth="yes"/>
      <point x="1837" y="978"/>
      <point x="1705" y="599"/>
      <point x="1688" y="331" type="curve" smooth="yes"/>
      <point x="1687" y="319"/>
      <point x="1686" y="307"/>
      <point x="1686" y="296" type="curve" smooth="yes"/>
      <point x="1686" y="104"/>
      <point x="1826" y="0"/>
      <point x="1971" y="0" type="curve" smooth="yes"/>
      <point x="2121" y="0"/>
      <point x="2273" y="87"/>
      <point x="2406" y="321" type="curve"/>
      <point x="2328" y="528"/>
      <point x="2329" y="518"/>
      <point x="2329" y="518" type="curve"/>
      <point x="2329" y="518"/>
      <point x="2149" y="224"/>
      <point x="2026" y="224" type="curve" smooth="yes"/>
      <point x="1972" y="224"/>
      <point x="1942" y="258"/>
      <point x="1942" y="336" type="curve" smooth="yes"/>
      <point x="1942" y="526"/>
      <point x="2095" y="933"/>
      <point x="2095" y="1278" type="curve" smooth="yes"/>
      <point x="2095" y="1524"/>
      <point x="2004" y="1730"/>
      <point x="1841" y="1730" type="curve" smooth="yes"/>
      <point x="1606" y="1730"/>
      <point x="1397" y="1487"/>
      <point x="1294" y="1093" type="curve"/>
      <point x="1273" y="1092" type="line"/>
      <point x="1273" y="1092"/>
      <point x="1308" y="1341"/>
      <point x="1308" y="1384" type="curve" smooth="yes"/>
      <point x="1308" y="1618"/>
      <point x="1221" y="1724"/>
      <point x="1097" y="1724" type="curve" smooth="yes"/>
      <point x="851" y="1724"/>
      <point x="576" y="1300"/>
      <point x="448" y="768" type="curve"/>
      <point x="487" y="959"/>
      <point x="540" y="1229"/>
      <point x="540" y="1377" type="curve" smooth="yes"/>
      <point x="540" y="1572"/>
      <point x="495" y="1702"/>
      <point x="329" y="1702" type="curve" smooth="yes"/>
      <point x="200" y="1702"/>
      <point x="43" y="1606"/>
      <point x="-52" y="1290" type="curve"/>
      <point x="-55" y="1287"/>
      <point x="-56" y="1284"/>
      <point x="-56" y="1280" type="curve" smooth="yes"/>
      <point x="-56" y="1251"/>
      <point x="-39" y="1201"/>
      <point x="-25" y="1201" type="curve" smooth="yes"/>
      <point x="-4" y="1201"/>
      <point x="15" y="1209"/>
      <point x="23" y="1229" type="curve"/>
      <point x="108" y="1343"/>
      <point x="236" y="1436"/>
      <point x="300" y="1436" type="curve" smooth="yes"/>
      <point x="340" y="1436"/>
      <point x="336" y="1381"/>
      <point x="336" y="1356" type="curve"/>
      <point x="305" y="941"/>
      <point x="288" y="702"/>
      <point x="175" y="232" type="curve" smooth="yes"/>
      <point x="164" y="185"/>
      <point x="159" y="141"/>
      <point x="159" y="87" type="curve" smooth="yes"/>
      <point x="159" y="30"/>
      <point x="224" y="-1"/>
      <point x="294" y="-1" type="curve" smooth="yes"/>
      <point x="353" y="-1"/>
      <point x="429" y="19"/>
    </contour>
  </outline>
</glyph>
<glyph name="N" format="1">
  <advance width="1623"/>
  <unicode hex="004E"/>
  <outline>
    <contour>
      <point x="441" y="767" type="line"/>
      <point x="509" y="992"/>
      <point x="574" y="1226"/>
      <point x="574" y="1402" type="curve" smooth="yes"/>
      <point x="574" y="1577"/>
      <point x="510" y="1696"/>
      <point x="320" y="1696" type="curve" smooth="yes"/>
      <point x="195" y="1696"/>
      <point x="51" y="1586"/>
      <point x="-38" y="1285" type="curve"/>
      <point x="-41" y="1282"/>
      <point x="-42" y="1279"/>
      <point x="-42" y="1275" type="curve" smooth="yes"/>
      <point x="-42" y="1246"/>
      <point x="5" y="1196"/>
      <point x="39" y="1196" type="curve" smooth="yes"/>
      <point x="60" y="1196"/>
      <point x="79" y="1204"/>
      <point x="87" y="1224" type="curve"/>
      <point x="157" y="1362"/>
      <point x="260" y="1471"/>
      <point x="314" y="1471" type="curve" smooth="yes"/>
      <point x="354" y="1471"/>
      <point x="350" y="1416"/>
      <point x="350" y="1391" type="curve"/>
      <point x="323" y="992"/>
      <point x="268" y="753"/>
      <point x="168" y="299" type="curve" smooth="yes"/>
      <point x="158" y="252"/>
      <point x="152" y="209"/>
      <point x="152" y="154" type="curve" smooth="yes"/>
      <point x="152" y="47"/>
      <point x="217" y="-14"/>
      <point x="287" y="-14" type="curve" smooth="yes"/>
      <point x="346" y="-14"/>
      <point x="396" y="14"/>
      <point x="433" y="85" type="curve"/>
      <point x="610" y="621"/>
      <point x="890" y="1472"/>
      <point x="1103" y="1472" type="curve" smooth="yes"/>
      <point x="1167" y="1472"/>
      <point x="1172" y="1368"/>
      <point x="1172" y="1327" type="curve" smooth="yes"/>
      <point x="1172" y="1099"/>
      <point x="1006" y="816"/>
      <point x="1006" y="505" type="curve" smooth="yes"/>
      <point x="1006" y="270"/>
      <point x="1076" y="-41"/>
      <point x="1355" y="-41" type="curve" smooth="yes"/>
      <point x="1571" y="-41"/>
      <point x="1816" y="130"/>
      <point x="1943" y="303" type="curve"/>
      <point x="1883" y="520" type="line"/>
      <point x="1885" y="517"/>
      <point x="1613" y="191"/>
      <point x="1420" y="191" type="curve" smooth="yes"/>
      <point x="1283" y="191"/>
      <point x="1272" y="373"/>
      <point x="1272" y="467" type="curve" smooth="yes"/>
      <point x="1272" y="763"/>
      <point x="1400" y="1189"/>
      <point x="1400" y="1427" type="curve" smooth="yes"/>
      <point x="1400" y="1562"/>
      <point x="1338" y="1728"/>
      <point x="1183" y="1728" type="curve" smooth="yes"/>
      <point x="985" y="1728"/>
      <point x="736" y="1579"/>
      <point x="458" y="761" type="curve"/>
    </contour>
  </outline>
</glyph>
<glyph name="O" format="1">
  <advance width="1632"/>
  <unicode hex="004F"/>
  <outline>
    <contour>
      <point x="871" y="-192" type="curve" smooth="yes"/>
      <point x="1441" y="-192"/>
      <point x="1761" y="538"/>
      <point x="1761" y="1073" type="curve" smooth="yes"/>
      <point x="1761" y="1504"/>
      <point x="1524" y="1806"/>
      <point x="1124" y="1806" type="curve" smooth="yes"/>
      <point x="529" y="1806"/>
      <point x="225" y="1143"/>
      <point x="225" y="633" type="curve" smooth="yes"/>
      <point x="225" y="151"/>
      <point x="475" y="-192"/>
    </contour>
    <contour>
      <point x="895" y="52" type="curve" smooth="yes"/>
      <point x="637" y="52"/>
      <point x="481" y="281"/>
      <point x="481" y="583" type="curve" smooth="yes"/>
      <point x="481" y="999"/>
      <point x="796" y="1574"/>
      <point x="1163" y="1574" type="curve" smooth="yes"/>
      <point x="1393" y="1574"/>
      <point x="1505" y="1369"/>
      <point x="1505" y="1112" type="curve" smooth="yes"/>
      <point x="1505" y="761"/>
      <point x="1322" y="52"/>
    </contour>
  </outline>
</glyph>
<glyph name="P" format="1">
  <advance width="1441"/>
  <unicode hex="0050"/>
  <outline>
    <contour>
      <point x="958" y="1823" type="curve" smooth="yes"/>
      <point x="448" y="1823"/>
      <point x="90" y="1299"/>
      <point x="90" y="667" type="curve" smooth="yes"/>
      <point x="90" y="299"/>
      <point x="197" y="-255"/>
      <point x="526" y="-255" type="curve" smooth="yes"/>
      <point x="836" y="-255"/>
      <point x="995" y="112"/>
      <point x="1003" y="393" type="curve" smooth="yes"/>
      <point x="1004" y="426"/>
      <point x="1013" y="686"/>
      <point x="1013" y="686" type="curve"/>
      <point x="1432" y="750"/>
      <point x="1632" y="1019"/>
      <point x="1632" y="1280" type="curve" smooth="yes"/>
      <point x="1632" y="1560"/>
      <point x="1406" y="1823"/>
    </contour>
    <contour>
      <point x="358" y="693" type="curve" smooth="yes"/>
      <point x="358" y="1095"/>
      <point x="531" y="1588"/>
      <point x="935" y="1588" type="curve" smooth="yes"/>
      <point x="1294" y="1588"/>
      <point x="1397" y="1406"/>
      <point x="1397" y="1257" type="curve" smooth="yes"/>
      <point x="1397" y="1105"/>
      <point x="1280" y="962"/>
      <point x="1019" y="921" type="curve"/>
      <point x="1028" y="1000" type="line"/>
      <point x="1089" y="1257" type="line"/>
      <point x="1089" y="1262"/>
      <point x="1090" y="1264"/>
      <point x="1090" y="1273" type="curve" smooth="yes"/>
      <point x="1090" y="1339"/>
      <point x="1029" y="1356"/>
      <point x="982" y="1356" type="curve" smooth="yes"/>
      <point x="746" y="1356"/>
      <point x="755" y="963"/>
      <point x="755" y="910" type="curve" smooth="yes"/>
      <point x="755" y="910"/>
      <point x="698" y="923"/>
      <point x="609" y="970" type="curve" smooth="yes"/>
      <point x="592" y="979"/>
      <point x="582" y="985"/>
      <point x="569" y="985" type="curve" smooth="yes"/>
      <point x="530" y="985"/>
      <point x="526" y="936"/>
      <point x="526" y="888" type="curve" smooth="yes"/>
      <point x="526" y="797"/>
      <point x="545" y="762"/>
      <point x="765" y="674" type="curve"/>
      <point x="765" y="627" type="line" smooth="yes"/>
      <point x="765" y="445"/>
      <point x="752" y="-21"/>
      <point x="548" y="-21" type="curve" smooth="yes"/>
      <point x="354" y="-21"/>
      <point x="358" y="527"/>
    </contour>
  </outline>
</glyph>
<glyph name="R" format="1">
  <advance width="1700"/>
  <unicode hex="0052"/>
  <outline>
    <contour>
      <point x="1824" y="1263" type="curve" smooth="yes"/>
      <point x="1824" y="1558"/>
      <point x="1522" y="1728"/>
      <point x="1221" y="1728" type="curve" smooth="yes"/>
      <point x="544" y="1728"/>
      <point x="64" y="1160"/>
      <point x="64" y="540" type="curve" smooth="yes"/>
      <point x="64" y="198"/>
      <point x="224" y="-192"/>
      <point x="544" y="-192" type="curve" smooth="yes"/>
      <point x="832" y="-192"/>
      <point x="928" y="160"/>
      <point x="980" y="744" type="curve"/>
      <point x="1043" y="744" type="line" smooth="yes"/>
      <point x="1252" y="744"/>
      <point x="1145" y="-96"/>
      <point x="1535" y="-96" type="curve" smooth="yes"/>
      <point x="1796" y="-96"/>
      <point x="2036" y="94"/>
      <point x="2036" y="90" type="curve"/>
      <point x="1920" y="286" type="line"/>
      <point x="1825" y="194"/>
      <point x="1691" y="128"/>
      <point x="1601" y="128" type="curve" smooth="yes"/>
      <point x="1406" y="128"/>
      <point x="1553" y="640"/>
      <point x="1180" y="776" type="curve"/>
      <point x="1639" y="805"/>
      <point x="1824" y="1070"/>
    </contour>
    <contour>
      <point x="1203" y="1504" type="curve" smooth="yes"/>
      <point x="1442" y="1504"/>
      <point x="1568" y="1386"/>
      <point x="1568" y="1255" type="curve" smooth="yes"/>
      <point x="1568" y="1121"/>
      <point x="1453" y="953"/>
      <point x="1019" y="946" type="curve"/>
      <point x="1031" y="1055"/>
      <point x="1049" y="1140"/>
      <point x="1050" y="1191" type="curve" smooth="yes"/>
      <point x="1050" y="1200" type="line" smooth="yes"/>
      <point x="1050" y="1247"/>
      <point x="1034" y="1280"/>
      <point x="967" y="1280" type="curve" smooth="yes"/>
      <point x="817" y="1280"/>
      <point x="800" y="1059"/>
      <point x="797" y="993" type="curve" smooth="yes"/>
      <point x="796" y="972" type="line"/>
      <point x="781" y="972"/>
      <point x="676" y="989"/>
      <point x="656" y="989" type="curve" smooth="yes"/>
      <point x="613" y="989"/>
      <point x="608" y="938"/>
      <point x="608" y="910" type="curve" smooth="yes"/>
      <point x="608" y="854"/>
      <point x="663" y="816"/>
      <point x="767" y="767" type="curve"/>
      <point x="767" y="645"/>
      <point x="749" y="32"/>
      <point x="570" y="32" type="curve" smooth="yes"/>
      <point x="391" y="32"/>
      <point x="320" y="270"/>
      <point x="320" y="487" type="curve" smooth="yes"/>
      <point x="320" y="907"/>
      <point x="543" y="1504"/>
    </contour>
  </outline>
</glyph>
<glyph name="S" format="1">
  <advance width="1695"/>
  <unicode hex="0053"/>
  <outline>
    <contour>
      <point x="733" y="1312" type="curve" smooth="yes"/>
      <point x="733" y="1416"/>
      <point x="848" y="1537"/>
      <point x="1088" y="1537" type="curve" smooth="yes"/>
      <point x="1304" y="1537"/>
      <point x="1457" y="1466"/>
      <point x="1457" y="1331" type="curve" smooth="yes"/>
      <point x="1457" y="1287"/>
      <point x="1440" y="1235"/>
      <point x="1404" y="1177" type="curve" smooth="yes"/>
      <point x="1366" y="1116"/>
      <point x="1351" y="1069"/>
      <point x="1351" y="1034" type="curve" smooth="yes"/>
      <point x="1351" y="987"/>
      <point x="1379" y="964"/>
      <point x="1419" y="964" type="curve" smooth="yes"/>
      <point x="1472" y="964"/>
      <point x="1545" y="1005"/>
      <point x="1600" y="1088" type="curve" smooth="yes"/>
      <point x="1657" y="1174"/>
      <point x="1682" y="1255"/>
      <point x="1682" y="1330" type="curve" smooth="yes"/>
      <point x="1682" y="1586"/>
      <point x="1405" y="1760"/>
      <point x="1128" y="1760" type="curve" smooth="yes"/>
      <point x="692" y="1760"/>
      <point x="476" y="1527"/>
      <point x="476" y="1304" type="curve" smooth="yes"/>
      <point x="476" y="824"/>
      <point x="1376" y="793"/>
      <point x="1376" y="416" type="curve" smooth="yes"/>
      <point x="1376" y="211"/>
      <point x="1124" y="96"/>
      <point x="891" y="96" type="curve" smooth="yes"/>
      <point x="693" y="96"/>
      <point x="509" y="180"/>
      <point x="509" y="366" type="curve" smooth="yes"/>
      <point x="509" y="451"/>
      <point x="534" y="508"/>
      <point x="534" y="552" type="curve" smooth="yes"/>
      <point x="534" y="601"/>
      <point x="501" y="624"/>
      <point x="459" y="624" type="curve" smooth="yes"/>
      <point x="376" y="624"/>
      <point x="254" y="535"/>
      <point x="254" y="365" type="curve" smooth="yes"/>
      <point x="254" y="34"/>
      <point x="577" y="-128"/>
      <point x="910" y="-128" type="curve" smooth="yes"/>
      <point x="1265" y="-128"/>
      <point x="1632" y="56"/>
      <point x="1632" y="416" type="curve" smooth="yes"/>
      <point x="1632" y="946"/>
      <point x="733" y="959"/>
    </contour>
  </outline>
</glyph>
<glyph name="T" format="1">
  <advance width="1516"/>
  <unicode hex="0054"/>
  <outline>
    <contour>
      <point x="206" y="1330" type="curve"/>
      <point x="206" y="1330"/>
      <point x="207" y="1202"/>
      <point x="367" y="1202" type="curve" smooth="yes"/>
      <point x="527" y="1202"/>
      <point x="527" y="1325"/>
      <point x="527" y="1330" type="curve" smooth="yes"/>
      <point x="527" y="1484"/>
      <point x="775" y="1504"/>
      <point x="987" y="1521" type="curve"/>
      <point x="745" y="760"/>
      <point x="596" y="455"/>
      <point x="543" y="92" type="curve"/>
      <point x="539" y="77"/>
      <point x="537" y="62"/>
      <point x="537" y="50" type="curve" smooth="yes"/>
      <point x="537" y="-30"/>
      <point x="593" y="-64"/>
      <point x="668" y="-64" type="curve" smooth="yes"/>
      <point x="719" y="-64"/>
      <point x="791" y="1"/>
      <point x="813" y="92" type="curve"/>
      <point x="890" y="387"/>
      <point x="1102" y="1072"/>
      <point x="1173" y="1521" type="curve"/>
      <point x="1444" y="1509"/>
      <point x="1688" y="1460"/>
      <point x="1892" y="1460" type="curve" smooth="yes"/>
      <point x="1950" y="1460"/>
      <point x="2002" y="1517"/>
      <point x="2002" y="1569" type="curve" smooth="yes"/>
      <point x="2002" y="1611"/>
      <point x="1978" y="1650"/>
      <point x="1915" y="1663" type="curve"/>
      <point x="1641" y="1712"/>
      <point x="1384" y="1728"/>
      <point x="1153" y="1728" type="curve" smooth="yes"/>
      <point x="641" y="1728"/>
      <point x="206" y="1667"/>
    </contour>
  </outline>
</glyph>
<glyph name="U" format="1">
  <advance width="1382"/>
  <unicode hex="0055"/>
  <outline>
    <contour>
      <point x="1248" y="1568" type="curve" smooth="yes"/>
      <point x="1210" y="863"/>
      <point x="996" y="64"/>
      <point x="651" y="64" type="curve" smooth="yes"/>
      <point x="427" y="64"/>
      <point x="352" y="249"/>
      <point x="352" y="488" type="curve" smooth="yes"/>
      <point x="352" y="836"/>
      <point x="520" y="1326"/>
      <point x="568" y="1472" type="curve" smooth="yes"/>
      <point x="575" y="1494"/>
      <point x="575" y="1513"/>
      <point x="577" y="1529" type="curve"/>
      <point x="577" y="1537" type="line" smooth="yes"/>
      <point x="577" y="1619"/>
      <point x="522" y="1632"/>
      <point x="420" y="1632" type="curve" smooth="yes"/>
      <point x="367" y="1632"/>
      <point x="318" y="1626"/>
      <point x="266" y="1472" type="curve"/>
      <point x="186" y="1252"/>
      <point x="96" y="906"/>
      <point x="96" y="588" type="curve" smooth="yes"/>
      <point x="96" y="188"/>
      <point x="219" y="-160"/>
      <point x="620" y="-160" type="curve" smooth="yes"/>
      <point x="1122" y="-160"/>
      <point x="1536" y="484"/>
      <point x="1536" y="1593" type="curve" smooth="yes"/>
      <point x="1536" y="1699"/>
      <point x="1494" y="1728"/>
      <point x="1423" y="1728" type="curve" smooth="yes"/>
      <point x="1342" y="1728"/>
      <point x="1255" y="1703"/>
    </contour>
  </outline>
</glyph>
<glyph name="V" format="1">
  <advance width="1056"/>
  <unicode hex="0056"/>
  <outline>
    <contour>
      <point x="91" y="480" type="curve" smooth="yes"/>
      <point x="116" y="223"/>
      <point x="71" y="-33"/>
      <point x="312" y="-33" type="curve" smooth="yes"/>
      <point x="430" y="-33"/>
      <point x="548" y="79"/>
      <point x="704" y="448" type="curve"/>
      <point x="700" y="425"/>
      <point x="698" y="404"/>
      <point x="698" y="383" type="curve" smooth="yes"/>
      <point x="698" y="226"/>
      <point x="803" y="123"/>
      <point x="983" y="123" type="curve" smooth="yes"/>
      <point x="1079" y="123"/>
      <point x="1193" y="180"/>
      <point x="1303" y="268" type="curve"/>
      <point x="1326" y="475" type="line"/>
      <point x="1326" y="475"/>
      <point x="1150" y="311"/>
      <point x="1065" y="311" type="curve" smooth="yes"/>
      <point x="887" y="311"/>
      <point x="808" y="408"/>
      <point x="808" y="510" type="curve" smooth="yes"/>
      <point x="808" y="543"/>
      <point x="816" y="578"/>
      <point x="832" y="608" type="curve" smooth="yes"/>
      <point x="999" y="918"/>
      <point x="1243" y="1371"/>
      <point x="1243" y="1516" type="curve" smooth="yes"/>
      <point x="1243" y="1584"/>
      <point x="1214" y="1630"/>
      <point x="1166" y="1630" type="curve" smooth="yes"/>
      <point x="1084" y="1630"/>
      <point x="1006" y="1575"/>
      <point x="988" y="1510" type="curve"/>
      <point x="337" y="260" type="line"/>
      <point x="293" y="1449" type="line"/>
      <point x="293" y="1543"/>
      <point x="271" y="1599"/>
      <point x="172" y="1599" type="curve" smooth="yes"/>
      <point x="125" y="1599"/>
      <point x="31" y="1598"/>
      <point x="31" y="1436" type="curve" smooth="yes"/>
      <point x="31" y="1216"/>
      <point x="90" y="491"/>
    </contour>
  </outline>
</glyph>
<glyph name="W" format="1">
  <advance width="2399"/>
  <unicode hex="0057"/>
  <outline>
    <contour>
      <point x="864" y="1542" type="curve" smooth="yes"/>
      <point x="864" y="1621"/>
      <point x="828" y="1632"/>
      <point x="768" y="1632" type="curve" smooth="yes"/>
      <point x="695" y="1632"/>
      <point x="627" y="1627"/>
      <point x="561" y="1472" type="curve"/>
      <point x="448" y="1195"/>
      <point x="384" y="879"/>
      <point x="384" y="595" type="curve" smooth="yes"/>
      <point x="384" y="135"/>
      <point x="541" y="-96"/>
      <point x="716" y="-96" type="curve" smooth="yes"/>
      <point x="1024" y="-96"/>
      <point x="1216" y="96"/>
      <point x="1312" y="704" type="curve"/>
      <point x="1308" y="660"/>
      <point x="1299" y="602"/>
      <point x="1299" y="539" type="curve" smooth="yes"/>
      <point x="1299" y="189"/>
      <point x="1394" y="-96"/>
      <point x="1648" y="-96" type="curve" smooth="yes"/>
      <point x="1849" y="-96"/>
      <point x="2025" y="61"/>
      <point x="2158" y="308" type="curve"/>
      <point x="2173" y="179"/>
      <point x="2241" y="125"/>
      <point x="2330" y="125" type="curve" smooth="yes"/>
      <point x="2421" y="125"/>
      <point x="2532" y="196"/>
      <point x="2630" y="308" type="curve"/>
      <point x="2613" y="515" type="line"/>
      <point x="2571" y="406"/>
      <point x="2482" y="332"/>
      <point x="2404" y="332" type="curve" smooth="yes"/>
      <point x="2327" y="332"/>
      <point x="2265" y="374"/>
      <point x="2265" y="478" type="curve" smooth="yes"/>
      <point x="2265" y="544"/>
      <point x="2432" y="1157"/>
      <point x="2432" y="1546" type="curve" smooth="yes"/>
      <point x="2432" y="1639"/>
      <point x="2386" y="1664"/>
      <point x="2320" y="1664" type="curve" smooth="yes"/>
      <point x="2234" y="1664"/>
      <point x="2153" y="1641"/>
      <point x="2145" y="1506" type="curve" smooth="yes"/>
      <point x="2129" y="1245"/>
      <point x="2023" y="96"/>
      <point x="1684" y="96" type="curve" smooth="yes"/>
      <point x="1586" y="96"/>
      <point x="1553" y="246"/>
      <point x="1553" y="487" type="curve" smooth="yes"/>
      <point x="1553" y="838"/>
      <point x="1664" y="1447"/>
      <point x="1664" y="1475" type="curve" smooth="yes"/>
      <point x="1664" y="1530"/>
      <point x="1637" y="1568"/>
      <point x="1536" y="1568" type="curve" smooth="yes"/>
      <point x="1430" y="1568"/>
      <point x="1376" y="1525"/>
      <point x="1344" y="1377" type="curve"/>
      <point x="1344" y="1377"/>
      <point x="1127" y="160"/>
      <point x="800" y="160" type="curve" smooth="yes"/>
      <point x="691" y="160"/>
      <point x="640" y="308"/>
      <point x="640" y="497" type="curve" smooth="yes"/>
      <point x="640" y="844"/>
      <point x="864" y="1406"/>
    </contour>
  </outline>
</glyph>
<glyph name="X" format="1">
  <advance width="1696"/>
  <unicode hex="0058"/>
  <outline>
    <contour>
      <point x="956" y="903" type="line"/>
      <point x="962" y="909"/>
      <point x="421" y="252"/>
      <point x="310" y="109" type="curve" smooth="yes"/>
      <point x="279" y="69"/>
      <point x="263" y="29"/>
      <point x="263" y="-5" type="curve" smooth="yes"/>
      <point x="263" y="-63"/>
      <point x="308" y="-105"/>
      <point x="400" y="-105" type="curve" smooth="yes"/>
      <point x="465" y="-105"/>
      <point x="530" y="-75"/>
      <point x="562" y="-31" type="curve" smooth="yes"/>
      <point x="653" y="96"/>
      <point x="1034" y="671"/>
      <point x="1034" y="671" type="curve"/>
      <point x="1166" y="50"/>
      <point x="1241" y="-64"/>
      <point x="1467" y="-64" type="curve" smooth="yes"/>
      <point x="1596" y="-64"/>
      <point x="1786" y="47"/>
      <point x="1962" y="257" type="curve"/>
      <point x="1977" y="272"/>
      <point x="1984" y="289"/>
      <point x="1984" y="310" type="curve" smooth="yes"/>
      <point x="1984" y="365"/>
      <point x="1934" y="431"/>
      <point x="1889" y="431" type="curve" smooth="yes"/>
      <point x="1877" y="431"/>
      <point x="1865" y="426"/>
      <point x="1855" y="416" type="curve"/>
      <point x="1737" y="233"/>
      <point x="1636" y="159"/>
      <point x="1555" y="159" type="curve" smooth="yes"/>
      <point x="1364" y="159"/>
      <point x="1388" y="420"/>
      <point x="1260" y="901" type="curve"/>
      <point x="1428" y="1150"/>
      <point x="1625" y="1412"/>
      <point x="1703" y="1412" type="curve" smooth="yes"/>
      <point x="1741" y="1412"/>
      <point x="1701" y="1257"/>
      <point x="1741" y="1257" type="curve" smooth="yes"/>
      <point x="1853" y="1257"/>
      <point x="1931" y="1322"/>
      <point x="1931" y="1450" type="curve" smooth="yes"/>
      <point x="1931" y="1579"/>
      <point x="1874" y="1710"/>
      <point x="1791" y="1710" type="curve" smooth="yes"/>
      <point x="1660" y="1710"/>
      <point x="1382" y="1411"/>
      <point x="1185" y="1116" type="curve"/>
      <point x="1072" y="1657"/>
      <point x="839" y="1728"/>
      <point x="640" y="1728" type="curve" smooth="yes"/>
      <point x="488" y="1728"/>
      <point x="374" y="1633"/>
      <point x="374" y="1436" type="curve" smooth="yes"/>
      <point x="374" y="1393"/>
      <point x="397" y="1214"/>
      <point x="438" y="1214" type="curve" smooth="yes"/>
      <point x="447" y="1214"/>
      <point x="457" y="1223"/>
      <point x="468" y="1244" type="curve" smooth="yes"/>
      <point x="532" y="1368"/>
      <point x="633" y="1472"/>
      <point x="650" y="1472" type="curve" smooth="yes"/>
      <point x="851" y="1472"/>
      <point x="916" y="1154"/>
      <point x="947" y="934" type="curve"/>
    </contour>
  </outline>
</glyph>
<glyph name="Y" format="1">
  <advance width="1472"/>
  <unicode hex="0059"/>
  <outline>
    <contour>
      <point x="1186" y="605" type="line"/>
      <point x="1390" y="923"/>
      <point x="1559" y="1248"/>
      <point x="1619" y="1388" type="curve" smooth="yes"/>
      <point x="1637" y="1430"/>
      <point x="1645" y="1463"/>
      <point x="1645" y="1491" type="curve" smooth="yes"/>
      <point x="1645" y="1572"/>
      <point x="1588" y="1602"/>
      <point x="1533" y="1602" type="curve" smooth="yes"/>
      <point x="1480" y="1602"/>
      <point x="1428" y="1580"/>
      <point x="1411" y="1548" type="curve" smooth="yes"/>
      <point x="1348" y="1427"/>
      <point x="1212" y="1150"/>
      <point x="1054" y="864" type="curve"/>
      <point x="879" y="1267"/>
      <point x="688" y="1596"/>
      <point x="383" y="1596" type="curve" smooth="yes"/>
      <point x="272" y="1596"/>
      <point x="225" y="1540"/>
      <point x="225" y="1494" type="curve" smooth="yes"/>
      <point x="225" y="1348"/>
      <point x="257" y="1208"/>
      <point x="311" y="1208" type="curve" smooth="yes"/>
      <point x="326" y="1208"/>
      <point x="339" y="1210"/>
      <point x="339" y="1233" type="curve" smooth="yes"/>
      <point x="339" y="1248"/>
      <point x="335" y="1269"/>
      <point x="335" y="1289" type="curve" smooth="yes"/>
      <point x="335" y="1325"/>
      <point x="347" y="1360"/>
      <point x="410" y="1360" type="curve" smooth="yes"/>
      <point x="592" y="1360"/>
      <point x="766" y="996"/>
      <point x="904" y="645" type="curve"/>
      <point x="824" y="505"/>
      <point x="709" y="159"/>
      <point x="410" y="159" type="curve" smooth="yes"/>
      <point x="375" y="159"/>
      <point x="334" y="171"/>
      <point x="293" y="197" type="curve"/>
      <point x="287" y="199"/>
      <point x="282" y="200"/>
      <point x="278" y="200" type="curve" smooth="yes"/>
      <point x="255" y="200"/>
      <point x="247" y="182"/>
      <point x="247" y="162" type="curve" smooth="yes"/>
      <point x="247" y="141"/>
      <point x="255" y="118"/>
      <point x="263" y="108" type="curve"/>
      <point x="275" y="77"/>
      <point x="398" y="-35"/>
      <point x="504" y="-35" type="curve" smooth="yes"/>
      <point x="679" y="-35"/>
      <point x="797" y="58"/>
      <point x="1126" y="506" type="curve"/>
    </contour>
  </outline>
</glyph>
<glyph name="Z" format="1">
  <advance width="1025"/>
  <unicode hex="005A"/>
  <outline>
    <contour>
      <point x="635" y="1313" type="curve" smooth="yes"/>
      <point x="657" y="1311"/>
      <point x="679" y="1310"/>
      <point x="700" y="1310" type="curve" smooth="yes"/>
      <point x="734" y="1310"/>
      <point x="767" y="1312"/>
      <point x="798" y="1312" type="curve"/>
      <point x="64" y="352" type="line"/>
      <point x="-15" y="275"/>
      <point x="-47" y="207"/>
      <point x="-47" y="156" type="curve" smooth="yes"/>
      <point x="-47" y="91"/>
      <point x="3" y="51"/>
      <point x="74" y="51" type="curve" smooth="yes"/>
      <point x="130" y="51"/>
      <point x="200" y="76"/>
      <point x="268" y="135" type="curve"/>
      <point x="537" y="10"/>
      <point x="677" y="-30"/>
      <point x="713" y="-30" type="curve" smooth="yes"/>
      <point x="944" y="-30"/>
      <point x="1180" y="122"/>
      <point x="1277" y="202" type="curve"/>
      <point x="1289" y="216"/>
      <point x="1295" y="236"/>
      <point x="1295" y="257" type="curve" smooth="yes"/>
      <point x="1295" y="316"/>
      <point x="1239" y="388"/>
      <point x="1181" y="388" type="curve" smooth="yes"/>
      <point x="1165" y="388"/>
      <point x="1152" y="383"/>
      <point x="1137" y="372" type="curve"/>
      <point x="1039" y="316"/>
      <point x="916" y="213"/>
      <point x="701" y="213" type="curve" smooth="yes"/>
      <point x="606" y="213"/>
      <point x="406" y="319"/>
      <point x="403" y="319" type="curve"/>
      <point x="408" y="342" type="line"/>
      <point x="457" y="401"/>
      <point x="697" y="889"/>
      <point x="1161" y="1340" type="curve"/>
      <point x="1199" y="1361"/>
      <point x="1215" y="1381"/>
      <point x="1217" y="1388" type="curve"/>
      <point x="1221" y="1412"/>
      <point x="1224" y="1434"/>
      <point x="1224" y="1454" type="curve" smooth="yes"/>
      <point x="1224" y="1518"/>
      <point x="1200" y="1558"/>
      <point x="1145" y="1558" type="curve" smooth="yes"/>
      <point x="1135" y="1558"/>
      <point x="1109" y="1546"/>
      <point x="866" y="1546" type="curve" smooth="yes"/>
      <point x="828" y="1546"/>
      <point x="784" y="1546"/>
      <point x="735" y="1547" type="curve" smooth="yes"/>
      <point x="601" y="1549"/>
      <point x="490" y="1633"/>
      <point x="373" y="1633" type="curve" smooth="yes"/>
      <point x="270" y="1633"/>
      <point x="125" y="1564"/>
      <point x="79" y="1219" type="curve" smooth="yes"/>
      <point x="76" y="1200"/>
      <point x="74" y="1183"/>
      <point x="74" y="1168" type="curve" smooth="yes"/>
      <point x="74" y="1131"/>
      <point x="84" y="1107"/>
      <point x="109" y="1107" type="curve" smooth="yes"/>
      <point x="137" y="1107"/>
      <point x="179" y="1132"/>
      <point x="216" y="1213" type="curve" smooth="yes"/>
      <point x="275" y="1344"/>
      <point x="314" y="1382"/>
      <point x="363" y="1382" type="curve" smooth="yes"/>
      <point x="421" y="1382"/>
      <point x="494" y="1328"/>
    </contour>
  </outline>
</glyph>
<glyph name="f" format="1">
  <advance width="723"/>
  <unicode hex="0066"/>
  <outline>
    <contour>
      <point x="68" y="-38" type="curve" smooth="yes"/>
      <point x="68" y="-282"/>
      <point x="114" y="-604"/>
      <point x="333" y="-604" type="curve" smooth="yes"/>
      <point x="626" y="-604"/>
      <point x="666" y="-75"/>
      <point x="666" y="-29" type="curve" smooth="yes"/>
      <point x="666" y="175"/>
      <point x="535" y="397"/>
      <point x="535" y="397" type="curve"/>
      <point x="535" y="397"/>
      <point x="773" y="401"/>
      <point x="947" y="497" type="curve"/>
      <point x="969" y="740" type="line"/>
      <point x="969" y="740"/>
      <point x="823" y="587"/>
      <point x="560" y="587" type="curve" smooth="yes"/>
      <point x="533" y="587"/>
      <point x="528" y="603"/>
      <point x="494" y="603" type="curve" smooth="yes"/>
      <point x="479" y="603"/>
      <point x="469" y="600"/>
      <point x="443" y="587" type="curve"/>
      <point x="445" y="603" type="line"/>
      <point x="692" y="921"/>
      <point x="929" y="1387"/>
      <point x="929" y="1624" type="curve" smooth="yes"/>
      <point x="929" y="1797"/>
      <point x="808" y="1856"/>
      <point x="717" y="1856" type="curve" smooth="yes"/>
      <point x="141" y="1856"/>
      <point x="68" y="-4"/>
    </contour>
    <contour>
      <point x="335" y="442" type="curve" smooth="yes"/>
      <point x="385" y="442"/>
      <point x="457" y="85"/>
      <point x="457" y="-57" type="curve" smooth="yes"/>
      <point x="457" y="-195"/>
      <point x="445" y="-379"/>
      <point x="354" y="-379" type="curve" smooth="yes"/>
      <point x="326" y="-379"/>
      <point x="294" y="-333"/>
      <point x="294" y="59" type="curve" smooth="yes"/>
      <point x="294" y="143"/>
      <point x="318" y="442"/>
    </contour>
    <contour>
      <point x="578" y="1533" type="curve" smooth="yes"/>
      <point x="604" y="1598"/>
      <point x="630" y="1631"/>
      <point x="691" y="1631" type="curve" smooth="yes"/>
      <point x="726" y="1631"/>
      <point x="747" y="1599"/>
      <point x="747" y="1529" type="curve" smooth="yes"/>
      <point x="747" y="1427"/>
      <point x="562" y="1123"/>
      <point x="399" y="816" type="curve"/>
      <point x="417" y="962"/>
      <point x="423" y="1149"/>
    </contour>
  </outline>
</glyph>
<glyph name="g" format="1">
  <advance width="928"/>
  <unicode hex="0067"/>
  <outline>
    <contour>
      <point x="514" y="12" type="line"/>
      <point x="227" y="-222"/>
      <point x="-64" y="-548"/>
      <point x="-64" y="-729" type="curve" smooth="yes"/>
      <point x="-64" y="-902"/>
      <point x="69" y="-928"/>
      <point x="160" y="-928" type="curve" smooth="yes"/>
      <point x="505" y="-928"/>
      <point x="660" y="-558"/>
      <point x="736" y="-128" type="curve"/>
      <point x="736" y="-128"/>
      <point x="1077" y="79"/>
      <point x="1174" y="245" type="curve"/>
      <point x="1126" y="467" type="line"/>
      <point x="950" y="214"/>
      <point x="848" y="140"/>
      <point x="768" y="94" type="curve"/>
      <point x="768" y="94"/>
      <point x="864" y="650"/>
      <point x="864" y="790" type="curve" smooth="yes"/>
      <point x="864" y="872"/>
      <point x="832" y="883"/>
      <point x="792" y="883" type="curve" smooth="yes"/>
      <point x="778" y="883"/>
      <point x="762" y="882"/>
      <point x="747" y="882" type="curve" smooth="yes"/>
      <point x="730" y="882"/>
      <point x="713" y="883"/>
      <point x="697" y="890" type="curve" smooth="yes"/>
      <point x="664" y="903"/>
      <point x="664" y="958"/>
      <point x="603" y="958" type="curve" smooth="yes"/>
      <point x="328" y="958"/>
      <point x="64" y="580"/>
      <point x="64" y="281" type="curve" smooth="yes"/>
      <point x="64" y="104"/>
      <point x="186" y="-2"/>
      <point x="315" y="-2" type="curve" smooth="yes"/>
      <point x="388" y="-2"/>
      <point x="470" y="41"/>
      <point x="541" y="105" type="curve"/>
    </contour>
    <contour>
      <point x="320" y="324" type="curve" smooth="yes"/>
      <point x="320" y="500"/>
      <point x="467" y="768"/>
      <point x="631" y="768" type="curve"/>
      <point x="570" y="474" type="line"/>
      <point x="559" y="389"/>
      <point x="497" y="192"/>
      <point x="398" y="192" type="curve" smooth="yes"/>
      <point x="336" y="192"/>
      <point x="320" y="258"/>
    </contour>
    <contour>
      <point x="172" y="-736" type="curve" smooth="yes"/>
      <point x="144" y="-736"/>
      <point x="132" y="-722"/>
      <point x="132" y="-699" type="curve" smooth="yes"/>
      <point x="132" y="-605"/>
      <point x="326" y="-359"/>
      <point x="480" y="-256" type="curve"/>
      <point x="448" y="-416"/>
      <point x="342" y="-736"/>
    </contour>
  </outline>
</glyph>
<glyph name="h" format="1">
  <advance width="1025"/>
  <unicode hex="0068"/>
  <outline>
    <contour>
      <point x="453" y="636" type="line"/>
      <point x="591" y="890"/>
      <point x="867" y="1403"/>
      <point x="867" y="1699" type="curve" smooth="yes"/>
      <point x="867" y="1832"/>
      <point x="830" y="1920"/>
      <point x="687" y="1920" type="curve" smooth="yes"/>
      <point x="132" y="1920"/>
      <point x="117" y="581"/>
      <point x="117" y="223" type="curve" smooth="yes"/>
      <point x="117" y="111"/>
      <point x="127" y="0"/>
      <point x="214" y="0" type="curve" smooth="yes"/>
      <point x="282" y="0"/>
      <point x="290" y="57"/>
      <point x="348" y="177" type="curve" smooth="yes"/>
      <point x="465" y="420"/>
      <point x="657" y="649"/>
      <point x="701" y="677" type="curve"/>
      <point x="722" y="674" type="line"/>
      <point x="711" y="664"/>
      <point x="599" y="436"/>
      <point x="599" y="306" type="curve" smooth="yes"/>
      <point x="599" y="177"/>
      <point x="666" y="0"/>
      <point x="813" y="0" type="curve" smooth="yes"/>
      <point x="956" y="0"/>
      <point x="1154" y="156"/>
      <point x="1225" y="212" type="curve"/>
      <point x="1208" y="478" type="line"/>
      <point x="1208" y="478"/>
      <point x="1024" y="247"/>
      <point x="893" y="247" type="curve" smooth="yes"/>
      <point x="868" y="247"/>
      <point x="850" y="282"/>
      <point x="850" y="335" type="curve" smooth="yes"/>
      <point x="850" y="530"/>
      <point x="970" y="687"/>
      <point x="970" y="868" type="curve" smooth="yes"/>
      <point x="970" y="958"/>
      <point x="914" y="978"/>
      <point x="883" y="978" type="curve" smooth="yes"/>
      <point x="756" y="978"/>
      <point x="582" y="765"/>
      <point x="473" y="622" type="curve"/>
    </contour>
    <contour>
      <point x="562" y="1240" type="curve"/>
      <point x="514" y="1120"/>
      <point x="409" y="879"/>
      <point x="336" y="710" type="curve"/>
      <point x="336" y="710"/>
      <point x="365" y="1103"/>
      <point x="457" y="1397" type="curve"/>
      <point x="549" y="1612"/>
      <point x="620" y="1729"/>
      <point x="654" y="1729" type="curve" smooth="yes"/>
      <point x="667" y="1729"/>
      <point x="674" y="1705"/>
      <point x="674" y="1653" type="curve" smooth="yes"/>
      <point x="674" y="1587"/>
      <point x="640" y="1443"/>
    </contour>
  </outline>
</glyph>
<glyph name="j" format="1">
  <advance width="672"/>
  <unicode hex="006A"/>
  <outline>
    <contour>
      <point x="0" y="0" type="curve" smooth="yes"/>
      <point x="0" y="-384"/>
      <point x="69" y="-608"/>
      <point x="256" y="-608" type="curve" smooth="yes"/>
      <point x="564" y="-608"/>
      <point x="576" y="-84"/>
      <point x="576" y="-32" type="curve" smooth="yes"/>
      <point x="576" y="164"/>
      <point x="488" y="384"/>
      <point x="488" y="384" type="curve"/>
      <point x="488" y="384"/>
      <point x="690" y="384"/>
      <point x="864" y="480" type="curve"/>
      <point x="864" y="672" type="line"/>
      <point x="576" y="544"/>
      <point x="465" y="569"/>
      <point x="316" y="544" type="curve"/>
      <point x="372" y="704" type="line" smooth="yes"/>
      <point x="384" y="739"/>
      <point x="419" y="864"/>
      <point x="419" y="895" type="curve" smooth="yes"/>
      <point x="419" y="926"/>
      <point x="400" y="960"/>
      <point x="353" y="960" type="curve" smooth="yes"/>
      <point x="289" y="960"/>
      <point x="220" y="957"/>
      <point x="183" y="896" type="curve" smooth="yes"/>
      <point x="96" y="753"/>
      <point x="0" y="83"/>
    </contour>
    <contour>
      <point x="286" y="447" type="curve"/>
      <point x="286" y="447"/>
      <point x="384" y="124"/>
      <point x="384" y="-32" type="curve" smooth="yes"/>
      <point x="384" y="-168"/>
      <point x="377" y="-384"/>
      <point x="288" y="-384" type="curve" smooth="yes"/>
      <point x="268" y="-384"/>
      <point x="224" y="-338"/>
      <point x="224" y="-192" type="curve" smooth="yes"/>
      <point x="224" y="31"/>
      <point x="252" y="242"/>
    </contour>
    <contour>
      <point x="222" y="1241" type="curve" smooth="yes"/>
      <point x="222" y="1149"/>
      <point x="277" y="1089"/>
      <point x="394" y="1089" type="curve" smooth="yes"/>
      <point x="530" y="1089"/>
      <point x="588" y="1178"/>
      <point x="588" y="1268" type="curve" smooth="yes"/>
      <point x="588" y="1368"/>
      <point x="511" y="1408"/>
      <point x="418" y="1408" type="curve" smooth="yes"/>
      <point x="270" y="1408"/>
      <point x="222" y="1303"/>
    </contour>
  </outline>
</glyph>
<glyph name="k" format="1">
  <advance width="991"/>
  <unicode hex="006B"/>
  <outline>
    <contour>
      <point x="425" y="574" type="line"/>
      <point x="544" y="752" type="line"/>
      <point x="580" y="816"/>
      <point x="867" y="1343"/>
      <point x="867" y="1685" type="curve" smooth="yes"/>
      <point x="867" y="1814"/>
      <point x="830" y="1907"/>
      <point x="695" y="1907" type="curve" smooth="yes"/>
      <point x="347" y="1907"/>
      <point x="224" y="1283"/>
      <point x="188" y="1062" type="curve" smooth="yes"/>
      <point x="137" y="752"/>
      <point x="118" y="383"/>
      <point x="118" y="230" type="curve" smooth="yes"/>
      <point x="118" y="105"/>
      <point x="130" y="0"/>
      <point x="244" y="0" type="curve" smooth="yes"/>
      <point x="287" y="0"/>
      <point x="317" y="18"/>
      <point x="348" y="71" type="curve" smooth="yes"/>
      <point x="642" y="587" type="line"/>
      <point x="685" y="660"/>
      <point x="722" y="686"/>
      <point x="745" y="686" type="curve" smooth="yes"/>
      <point x="764" y="686"/>
      <point x="774" y="667"/>
      <point x="774" y="639" type="curve" smooth="yes"/>
      <point x="774" y="611"/>
      <point x="739" y="587"/>
      <point x="692" y="538" type="curve"/>
      <point x="572" y="383"/>
      <point x="549" y="267"/>
      <point x="549" y="205" type="curve" smooth="yes"/>
      <point x="549" y="102"/>
      <point x="591" y="0"/>
      <point x="783" y="0" type="curve" smooth="yes"/>
      <point x="929" y="0"/>
      <point x="1112" y="92"/>
      <point x="1194" y="211" type="curve"/>
      <point x="1134" y="456" type="line"/>
      <point x="1068" y="384"/>
      <point x="940" y="206"/>
      <point x="860" y="206" type="curve" smooth="yes"/>
      <point x="811" y="206"/>
      <point x="788" y="225"/>
      <point x="788" y="273" type="curve" smooth="yes"/>
      <point x="788" y="441"/>
      <point x="1058" y="612"/>
      <point x="1058" y="776" type="curve" smooth="yes"/>
      <point x="1058" y="889"/>
      <point x="994" y="960"/>
      <point x="919" y="960" type="curve" smooth="yes"/>
      <point x="846" y="960"/>
      <point x="784" y="936"/>
      <point x="743" y="907" type="curve" smooth="yes"/>
      <point x="691" y="870"/>
      <point x="545" y="682"/>
      <point x="449" y="559" type="curve"/>
    </contour>
    <contour>
      <point x="645" y="1682" type="curve" smooth="yes"/>
      <point x="660" y="1682"/>
      <point x="666" y="1670"/>
      <point x="666" y="1650" type="curve" smooth="yes"/>
      <point x="666" y="1560"/>
      <point x="561" y="1328"/>
      <point x="532" y="1239" type="curve" smooth="yes"/>
      <point x="491" y="1115"/>
      <point x="407" y="861"/>
      <point x="347" y="685" type="curve"/>
      <point x="347" y="685"/>
      <point x="374" y="1094"/>
      <point x="459" y="1397" type="curve"/>
      <point x="529" y="1571"/>
      <point x="560" y="1682"/>
    </contour>
  </outline>
</glyph>
<glyph name="l" format="1">
  <advance width="575"/>
  <unicode hex="006C"/>
  <outline>
    <contour>
      <point x="351" y="0" type="curve" smooth="yes"/>
      <point x="533" y="0"/>
      <point x="840" y="227"/>
      <point x="840" y="227" type="curve"/>
      <point x="758" y="437" type="line"/>
      <point x="758" y="437"/>
      <point x="519" y="244"/>
      <point x="418" y="244" type="curve" smooth="yes"/>
      <point x="398" y="244"/>
      <point x="365" y="312"/>
      <point x="365" y="381" type="curve" smooth="yes"/>
      <point x="365" y="395" type="line"/>
      <point x="373" y="449"/>
      <point x="392" y="509"/>
      <point x="404" y="536" type="curve"/>
      <point x="589" y="896"/>
      <point x="871" y="1317"/>
      <point x="871" y="1694" type="curve" smooth="yes"/>
      <point x="871" y="1805"/>
      <point x="842" y="1920"/>
      <point x="727" y="1920" type="curve" smooth="yes"/>
      <point x="389" y="1920"/>
      <point x="96" y="1056"/>
      <point x="96" y="582" type="curve" smooth="yes"/>
      <point x="96" y="272"/>
      <point x="208" y="0"/>
    </contour>
    <contour>
      <point x="352" y="800" type="curve"/>
      <point x="352" y="1184"/>
      <point x="536" y="1664"/>
      <point x="652" y="1664" type="curve" smooth="yes"/>
      <point x="663" y="1664"/>
      <point x="663" y="1632"/>
      <point x="663" y="1594" type="curve"/>
      <point x="638" y="1352"/>
      <point x="471" y="1013"/>
    </contour>
  </outline>
</glyph>
<glyph name="m" format="1">
  <advance width="1312"/>
  <unicode hex="006D"/>
  <outline>
    <contour>
      <point x="544" y="187" type="curve" smooth="yes"/>
      <point x="544" y="105"/>
      <point x="558" y="0"/>
      <point x="642" y="0" type="curve" smooth="yes"/>
      <point x="698" y="0"/>
      <point x="739" y="16"/>
      <point x="774" y="71" type="curve"/>
      <point x="977" y="588" type="line"/>
      <point x="992" y="588" type="line"/>
      <point x="982" y="492"/>
      <point x="975" y="396"/>
      <point x="975" y="312" type="curve" smooth="yes"/>
      <point x="975" y="133"/>
      <point x="1006" y="0"/>
      <point x="1103" y="0" type="curve" smooth="yes"/>
      <point x="1298" y="0"/>
      <point x="1402" y="116"/>
      <point x="1520" y="210" type="curve"/>
      <point x="1503" y="446" type="line"/>
      <point x="1503" y="446"/>
      <point x="1337" y="239"/>
      <point x="1224" y="239" type="curve" smooth="yes"/>
      <point x="1198" y="239"/>
      <point x="1176" y="290"/>
      <point x="1176" y="361" type="curve" smooth="yes"/>
      <point x="1176" y="546"/>
      <point x="1222" y="681"/>
      <point x="1222" y="866" type="curve" smooth="yes"/>
      <point x="1222" y="925"/>
      <point x="1172" y="960"/>
      <point x="1110" y="960" type="curve" smooth="yes"/>
      <point x="1054" y="960"/>
      <point x="1019" y="918"/>
      <point x="981" y="865" type="curve" smooth="yes"/>
      <point x="902" y="755"/>
      <point x="782" y="554"/>
      <point x="777" y="546" type="curve"/>
      <point x="766" y="558" type="line"/>
      <point x="766" y="561"/>
      <point x="766" y="564"/>
      <point x="773" y="595" type="curve" smooth="yes"/>
      <point x="791" y="682"/>
      <point x="821" y="763"/>
      <point x="821" y="866" type="curve" smooth="yes"/>
      <point x="821" y="925"/>
      <point x="775" y="960"/>
      <point x="719" y="960" type="curve" smooth="yes"/>
      <point x="659" y="960"/>
      <point x="619" y="919"/>
      <point x="580" y="865" type="curve" smooth="yes"/>
      <point x="501" y="757"/>
      <point x="391" y="554"/>
      <point x="386" y="546" type="curve"/>
      <point x="375" y="558" type="line"/>
      <point x="375" y="558"/>
      <point x="414" y="781"/>
      <point x="414" y="869" type="curve" smooth="yes"/>
      <point x="414" y="952"/>
      <point x="410" y="960"/>
      <point x="308" y="960" type="curve" smooth="yes"/>
      <point x="241" y="960"/>
      <point x="228" y="947"/>
      <point x="200" y="862" type="curve" smooth="yes"/>
      <point x="159" y="737"/>
      <point x="96" y="375"/>
      <point x="96" y="209" type="curve" smooth="yes"/>
      <point x="96" y="103"/>
      <point x="113" y="0"/>
      <point x="223" y="0" type="curve" smooth="yes"/>
      <point x="266" y="0"/>
      <point x="301" y="16"/>
      <point x="328" y="70" type="curve" smooth="yes"/>
      <point x="511" y="442"/>
      <point x="551" y="546"/>
      <point x="583" y="585" type="curve"/>
      <point x="598" y="585" type="line"/>
      <point x="598" y="585"/>
      <point x="544" y="258"/>
    </contour>
  </outline>
</glyph>
<glyph name="n" format="1">
  <advance width="927"/>
  <unicode hex="006E"/>
  <outline>
    <contour>
      <point x="128" y="209" type="curve" smooth="yes"/>
      <point x="128" y="103"/>
      <point x="145" y="0"/>
      <point x="255" y="0" type="curve" smooth="yes"/>
      <point x="299" y="0"/>
      <point x="331" y="17"/>
      <point x="358" y="71" type="curve" smooth="yes"/>
      <point x="620" y="591" type="line"/>
      <point x="636" y="591" type="line"/>
      <point x="620" y="485"/>
      <point x="608" y="392"/>
      <point x="608" y="312" type="curve" smooth="yes"/>
      <point x="608" y="109"/>
      <point x="665" y="0"/>
      <point x="738" y="0" type="curve" smooth="yes"/>
      <point x="886" y="0"/>
      <point x="1002" y="90"/>
      <point x="1111" y="173" type="curve" smooth="yes"/>
      <point x="1161" y="211" type="line"/>
      <point x="1144" y="435" type="line"/>
      <point x="1144" y="435"/>
      <point x="942" y="224"/>
      <point x="864" y="224" type="curve" smooth="yes"/>
      <point x="820" y="224"/>
      <point x="800" y="284"/>
      <point x="800" y="366" type="curve" smooth="yes"/>
      <point x="800" y="516"/>
      <point x="863" y="758"/>
      <point x="863" y="802" type="curve" smooth="yes"/>
      <point x="863" y="900"/>
      <point x="820" y="960"/>
      <point x="754" y="960" type="curve" smooth="yes"/>
      <point x="688" y="960"/>
      <point x="633" y="938"/>
      <point x="590" y="866" type="curve" smooth="yes"/>
      <point x="563" y="820"/>
      <point x="439" y="587"/>
      <point x="416" y="544" type="curve"/>
      <point x="396" y="544" type="line"/>
      <point x="397" y="572"/>
      <point x="436" y="779"/>
      <point x="436" y="839" type="curve" smooth="yes"/>
      <point x="436" y="912"/>
      <point x="412" y="960"/>
      <point x="340" y="960" type="curve" smooth="yes"/>
      <point x="268" y="960"/>
      <point x="227" y="913"/>
      <point x="212" y="852" type="curve" smooth="yes"/>
      <point x="174" y="696"/>
      <point x="128" y="384"/>
    </contour>
  </outline>
</glyph>
<glyph name="o" format="1">
  <advance width="873"/>
  <unicode hex="006F"/>
  <outline>
    <contour>
      <point x="750" y="760" type="line"/>
      <point x="845" y="696"/>
      <point x="1035" y="562"/>
      <point x="1108" y="465" type="curve"/>
      <point x="1127" y="606" type="line"/>
      <point x="983" y="788"/>
      <point x="795" y="960"/>
      <point x="542" y="960" type="curve" smooth="yes"/>
      <point x="245" y="960"/>
      <point x="64" y="730"/>
      <point x="64" y="437" type="curve" smooth="yes"/>
      <point x="64" y="225"/>
      <point x="160" y="0"/>
      <point x="394" y="0" type="curve" smooth="yes"/>
      <point x="640" y="0"/>
      <point x="800" y="267"/>
      <point x="800" y="503" type="curve" smooth="yes"/>
      <point x="800" y="581"/>
      <point x="780" y="672"/>
      <point x="742" y="749" type="curve"/>
    </contour>
    <contour>
      <point x="433" y="192" type="curve" smooth="yes"/>
      <point x="328" y="192"/>
      <point x="288" y="285"/>
      <point x="288" y="396" type="curve" smooth="yes"/>
      <point x="288" y="559"/>
      <point x="381" y="768"/>
      <point x="491" y="768" type="curve" smooth="yes"/>
      <point x="573" y="768"/>
      <point x="608" y="673"/>
      <point x="608" y="551" type="curve" smooth="yes"/>
      <point x="608" y="396"/>
      <point x="525" y="192"/>
    </contour>
  </outline>
</glyph>
<glyph name="p" format="1">
  <advance width="854"/>
  <unicode hex="0070"/>
  <outline>
    <contour>
      <point x="530" y="199" type="line"/>
      <point x="771" y="307"/>
      <point x="876" y="471"/>
      <point x="876" y="651" type="curve" smooth="yes"/>
      <point x="876" y="877"/>
      <point x="745" y="960"/>
      <point x="583" y="960" type="curve" smooth="yes"/>
      <point x="257" y="960"/>
      <point x="224" y="576"/>
      <point x="180" y="264" type="curve"/>
      <point x="180" y="264"/>
      <point x="-129" y="-210"/>
      <point x="-129" y="-429" type="curve" smooth="yes"/>
      <point x="-129" y="-618"/>
      <point x="-84" y="-778"/>
      <point x="68" y="-778" type="curve" smooth="yes"/>
      <point x="257" y="-778"/>
      <point x="434" y="-461"/>
      <point x="434" y="25" type="curve" smooth="yes"/>
      <point x="434" y="43" type="line"/>
      <point x="656" y="10"/>
      <point x="675" y="0"/>
      <point x="694" y="0" type="curve" smooth="yes"/>
      <point x="850" y="0"/>
      <point x="1017" y="95"/>
      <point x="1102" y="200" type="curve"/>
      <point x="1091" y="429" type="line"/>
      <point x="974" y="291"/>
      <point x="805" y="178"/>
      <point x="536" y="178" type="curve"/>
    </contour>
    <contour>
      <point x="410" y="279" type="curve"/>
      <point x="410" y="515"/>
      <point x="448" y="774"/>
      <point x="595" y="774" type="curve" smooth="yes"/>
      <point x="684" y="774"/>
      <point x="686" y="663"/>
      <point x="672" y="604" type="curve" smooth="yes"/>
      <point x="640" y="480"/>
      <point x="569" y="359"/>
    </contour>
    <contour>
      <point x="62" y="-441" type="curve" smooth="yes"/>
      <point x="62" y="-390"/>
      <point x="129" y="-113"/>
      <point x="205" y="20" type="curve"/>
      <point x="205" y="20"/>
      <point x="204" y="-39"/>
      <point x="196" y="-181" type="curve" smooth="yes"/>
      <point x="189" y="-304"/>
      <point x="198" y="-549"/>
      <point x="130" y="-549" type="curve" smooth="yes"/>
      <point x="79" y="-549"/>
      <point x="62" y="-462"/>
    </contour>
  </outline>
</glyph>
<glyph name="q" format="1">
  <advance width="832"/>
  <unicode hex="0071"/>
  <outline>
    <contour>
      <point x="384" y="160" type="curve"/>
      <point x="319" y="-71"/>
      <point x="224" y="-353"/>
      <point x="224" y="-512" type="curve" smooth="yes"/>
      <point x="224" y="-653"/>
      <point x="325" y="-736"/>
      <point x="416" y="-736" type="curve" smooth="yes"/>
      <point x="626" y="-736"/>
      <point x="736" y="-576"/>
      <point x="736" y="-320" type="curve" smooth="yes"/>
      <point x="736" y="-219"/>
      <point x="720" y="-98"/>
      <point x="701" y="6" type="curve"/>
      <point x="869" y="30"/>
      <point x="975" y="116"/>
      <point x="1056" y="192" type="curve"/>
      <point x="1056" y="416" type="line"/>
      <point x="967" y="345"/>
      <point x="799" y="192"/>
      <point x="704" y="192" type="curve" smooth="yes"/>
      <point x="693" y="192"/>
      <point x="678" y="194"/>
      <point x="662" y="200" type="curve"/>
      <point x="654" y="235"/>
      <point x="648" y="257"/>
      <point x="649" y="256" type="curve"/>
      <point x="649" y="263"/>
      <point x="725" y="526"/>
      <point x="756" y="624" type="curve" smooth="yes"/>
      <point x="763" y="647"/>
      <point x="766" y="674"/>
      <point x="766" y="698" type="curve" smooth="yes"/>
      <point x="766" y="838"/>
      <point x="683" y="960"/>
      <point x="480" y="960" type="curve" smooth="yes"/>
      <point x="256" y="960"/>
      <point x="32" y="763"/>
      <point x="32" y="512" type="curve" smooth="yes"/>
      <point x="32" y="327"/>
      <point x="155" y="156"/>
      <point x="338" y="156" type="curve" smooth="yes"/>
      <point x="353" y="156"/>
      <point x="368" y="157"/>
    </contour>
    <contour>
      <point x="416" y="288" type="curve"/>
      <point x="281" y="298"/>
      <point x="256" y="427"/>
      <point x="256" y="512" type="curve" smooth="yes"/>
      <point x="256" y="617"/>
      <point x="334" y="768"/>
      <point x="480" y="768" type="curve" smooth="yes"/>
      <point x="512" y="768"/>
      <point x="544" y="736"/>
      <point x="544" y="736" type="curve"/>
      <point x="544" y="736"/>
      <point x="426" y="317"/>
    </contour>
    <contour>
      <point x="544" y="33" type="curve"/>
      <point x="566" y="-53"/>
      <point x="576" y="-162"/>
      <point x="576" y="-256" type="curve" smooth="yes"/>
      <point x="576" y="-409"/>
      <point x="541" y="-544"/>
      <point x="438" y="-544" type="curve" smooth="yes"/>
      <point x="416" y="-544"/>
      <point x="401" y="-525"/>
      <point x="401" y="-498" type="curve" smooth="yes"/>
      <point x="401" y="-413"/>
      <point x="526" y="-23"/>
    </contour>
  </outline>
</glyph>
<glyph name="r" format="1">
  <advance width="864"/>
  <unicode hex="0072"/>
  <outline>
    <contour>
      <point x="128" y="209" type="curve" smooth="yes"/>
      <point x="128" y="103"/>
      <point x="145" y="0"/>
      <point x="255" y="0" type="curve" smooth="yes"/>
      <point x="304" y="0"/>
      <point x="331" y="32"/>
      <point x="368" y="135" type="curve" smooth="yes"/>
      <point x="547" y="634" type="line"/>
      <point x="563" y="634" type="line"/>
      <point x="585" y="467"/>
      <point x="619" y="288"/>
      <point x="818" y="288" type="curve" smooth="yes"/>
      <point x="930" y="288"/>
      <point x="1038" y="363"/>
      <point x="1108" y="409" type="curve"/>
      <point x="1123" y="643" type="line"/>
      <point x="1123" y="643"/>
      <point x="969" y="512"/>
      <point x="850" y="512" type="curve" smooth="yes"/>
      <point x="808" y="512"/>
      <point x="768" y="542"/>
      <point x="768" y="637" type="curve" smooth="yes"/>
      <point x="768" y="692"/>
      <point x="800" y="820"/>
      <point x="800" y="866" type="curve" smooth="yes"/>
      <point x="800" y="925"/>
      <point x="753" y="960"/>
      <point x="702" y="960" type="curve" smooth="yes"/>
      <point x="556" y="960"/>
      <point x="481" y="783"/>
      <point x="427" y="676" type="curve"/>
      <point x="416" y="676" type="line"/>
      <point x="414" y="744"/>
      <point x="414" y="820"/>
      <point x="414" y="869" type="curve" smooth="yes"/>
      <point x="414" y="952"/>
      <point x="411" y="960"/>
      <point x="342" y="960" type="curve" smooth="yes"/>
      <point x="280" y="960"/>
      <point x="265" y="950"/>
      <point x="243" y="892" type="curve" smooth="yes"/>
      <point x="193" y="762"/>
      <point x="128" y="384"/>
    </contour>
  </outline>
</glyph>
<glyph name="s" format="1">
  <advance width="865"/>
  <unicode hex="0073"/>
  <outline>
    <contour>
      <point x="96" y="384" type="curve" smooth="yes"/>
      <point x="74" y="365"/>
      <point x="0" y="320"/>
      <point x="0" y="256" type="curve" smooth="yes"/>
      <point x="0" y="184"/>
      <point x="33" y="185"/>
      <point x="76" y="185" type="curve" smooth="yes"/>
      <point x="93" y="185"/>
      <point x="111" y="186"/>
      <point x="130" y="190" type="curve"/>
      <point x="143" y="46"/>
      <point x="264" y="-9"/>
      <point x="421" y="-9" type="curve" smooth="yes"/>
      <point x="639" y="-9"/>
      <point x="926" y="97"/>
      <point x="1090" y="224" type="curve"/>
      <point x="1089" y="448" type="line"/>
      <point x="961" y="352"/>
      <point x="833" y="320"/>
      <point x="737" y="256" type="curve"/>
      <point x="737" y="512"/>
      <point x="673" y="547"/>
      <point x="673" y="672" type="curve"/>
      <point x="681" y="701"/>
      <point x="801" y="800"/>
      <point x="801" y="864" type="curve" smooth="yes"/>
      <point x="801" y="896"/>
      <point x="801" y="960"/>
      <point x="673" y="960" type="curve" smooth="yes"/>
      <point x="597" y="960"/>
      <point x="548" y="912"/>
      <point x="513" y="864" type="curve"/>
      <point x="257" y="544"/>
      <point x="320" y="576"/>
    </contour>
    <contour>
      <point x="481" y="512" type="line"/>
      <point x="495" y="469"/>
      <point x="517" y="389"/>
      <point x="517" y="317" type="curve" smooth="yes"/>
      <point x="517" y="234"/>
      <point x="488" y="160"/>
      <point x="385" y="160" type="curve" smooth="yes"/>
      <point x="299" y="160"/>
      <point x="256" y="256"/>
      <point x="224" y="256" type="curve"/>
    </contour>
  </outline>
</glyph>
<glyph name="u" format="1">
  <advance width="962"/>
  <unicode hex="0075"/>
  <outline>
    <contour>
      <point x="876" y="895" type="curve" smooth="yes"/>
      <point x="876" y="932"/>
      <point x="832" y="959"/>
      <point x="765" y="959" type="curve" smooth="yes"/>
      <point x="706" y="959"/>
      <point x="650" y="934"/>
      <point x="644" y="902" type="curve" smooth="yes"/>
      <point x="545" y="394" type="line" smooth="yes"/>
      <point x="524" y="288"/>
      <point x="454" y="225"/>
      <point x="396" y="225" type="curve" smooth="yes"/>
      <point x="356" y="225"/>
      <point x="338" y="271"/>
      <point x="338" y="318" type="curve" smooth="yes"/>
      <point x="338" y="323"/>
      <point x="399" y="704"/>
      <point x="435" y="917" type="curve"/>
      <point x="435" y="939"/>
      <point x="406" y="957"/>
      <point x="336" y="959" type="curve"/>
      <point x="207" y="957"/>
      <point x="165" y="747"/>
      <point x="155" y="688" type="curve" smooth="yes"/>
      <point x="119" y="485"/>
      <point x="91" y="322"/>
      <point x="91" y="220" type="curve" smooth="yes"/>
      <point x="91" y="52"/>
      <point x="166" y="-2"/>
      <point x="253" y="-2" type="curve" smooth="yes"/>
      <point x="360" y="-2"/>
      <point x="482" y="91"/>
      <point x="577" y="215" type="curve"/>
      <point x="604" y="93"/>
      <point x="644" y="10"/>
      <point x="745" y="10" type="curve" smooth="yes"/>
      <point x="899" y="10"/>
      <point x="1129" y="147"/>
      <point x="1216" y="234" type="curve"/>
      <point x="1216" y="319"/>
      <point x="1214" y="365"/>
      <point x="1214" y="454" type="curve"/>
      <point x="1148" y="366"/>
      <point x="934" y="223"/>
      <point x="845" y="223" type="curve" smooth="yes"/>
      <point x="792" y="223"/>
      <point x="792" y="277"/>
      <point x="792" y="352" type="curve" smooth="yes"/>
      <point x="792" y="411"/>
      <point x="876" y="787"/>
    </contour>
  </outline>
</glyph>
<glyph name="z" format="1">
  <advance width="673"/>
  <unicode hex="007A"/>
  <outline>
    <contour>
      <point x="27" y="187" type="curve" smooth="yes"/>
      <point x="27" y="119"/>
      <point x="65" y="58"/>
      <point x="144" y="58" type="curve" smooth="yes"/>
      <point x="163" y="58"/>
      <point x="185" y="62"/>
      <point x="210" y="70" type="curve"/>
      <point x="328" y="10"/>
      <point x="411" y="-10"/>
      <point x="422" y="-10" type="curve" smooth="yes"/>
      <point x="620" y="-10"/>
      <point x="905" y="144"/>
      <point x="905" y="261" type="curve" smooth="yes"/>
      <point x="905" y="307"/>
      <point x="874" y="359"/>
      <point x="823" y="359" type="curve" smooth="yes"/>
      <point x="724" y="359"/>
      <point x="652" y="190"/>
      <point x="484" y="190" type="curve" smooth="yes"/>
      <point x="434" y="190"/>
      <point x="336" y="235"/>
      <point x="333" y="235" type="curve"/>
      <point x="338" y="255" type="line"/>
      <point x="375" y="302"/>
      <point x="643" y="642"/>
      <point x="691" y="729" type="curve"/>
      <point x="747" y="744"/>
      <point x="769" y="763"/>
      <point x="771" y="773" type="curve" smooth="yes"/>
      <point x="775" y="794"/>
      <point x="777" y="814"/>
      <point x="777" y="831" type="curve" smooth="yes"/>
      <point x="777" y="887"/>
      <point x="757" y="922"/>
      <point x="711" y="922" type="curve" smooth="yes"/>
      <point x="703" y="922"/>
      <point x="693" y="912"/>
      <point x="585" y="912" type="curve" smooth="yes"/>
      <point x="566" y="912"/>
      <point x="544" y="912"/>
      <point x="518" y="913" type="curve" smooth="yes"/>
      <point x="449" y="915"/>
      <point x="389" y="988"/>
      <point x="324" y="988" type="curve" smooth="yes"/>
      <point x="238" y="988"/>
      <point x="116" y="945"/>
      <point x="77" y="713" type="curve" smooth="yes"/>
      <point x="74" y="697"/>
      <point x="73" y="681"/>
      <point x="73" y="668" type="curve" smooth="yes"/>
      <point x="73" y="636"/>
      <point x="81" y="615"/>
      <point x="102" y="615" type="curve" smooth="yes"/>
      <point x="125" y="615"/>
      <point x="151" y="644"/>
      <point x="192" y="708" type="curve" smooth="yes"/>
      <point x="229" y="766"/>
      <point x="246" y="768"/>
      <point x="332" y="768" type="curve" smooth="yes"/>
      <point x="368" y="768"/>
      <point x="384" y="751"/>
      <point x="432" y="729" type="curve"/>
      <point x="121" y="311" type="line"/>
      <point x="72" y="258"/>
      <point x="27" y="245"/>
    </contour>
  </outline>
</glyph>
